<?xml version="1.0" encoding="UTF-8"?>
<svg version="1.1" viewBox="0 -40 680 193" width="100" height="28" xmlns="http://www.w3.org/2000/svg">
<title>exogee</title>
<g fill="none" fill-rule="evenodd">
<g transform="translate(-293 -25)">
<g transform="translate(293.06 25.677)">
<path d="m187.15 42.52 33.773-39.37h-25.561c-5.745 0-11.181 2.605-14.779 7.083l-10.144 12.624 16.711 19.663z" fill="#1BA8F0"/>
<path d="m229.02 100.57h-26.135c-5.676 0-11.052-2.542-14.653-6.928l-22.211-27.047-22.665 27.163c-3.603 4.316-8.935 6.812-14.558 6.812h-26.226l46.348-53.099-37.349-44.325h25.881c5.563 0 10.845 2.443 14.447 6.682l77.121 90.742z" fill="#171716"/>
<path d="m312.7 51.974c0-15.3-11.7-27.675-27.45-27.675-15.749 0-27.449 12.375-27.449 27.675 0 14.85 11.475 27.45 27.449 27.45 15.975 0 27.45-12.6 27.45-27.45m11.924-38.249c9.676 8.774 16.426 22.274 16.426 38.249 0 15.75-6.75 29.25-16.426 38.025-8.324 7.65-20.924 13.724-39.374 13.724s-31.049-6.074-39.375-13.724c-9.674-8.775-16.424-22.275-16.424-38.025 0-15.975 6.75-29.475 16.424-38.249 8.326-7.65 20.925-13.725 39.375-13.725s31.05 6.075 39.374 13.725" fill="#171716"/>
<path d="m386.25 31.049c-4.5 4.05-8.775 10.576-8.775 20.7 0 8.55 3.15 14.85 7.201 19.125 5.849 6.3 13.274 8.55 19.799 8.55 6.749 0 13.5-2.475 18.225-6.75 5.625-5.175 8.775-13.05 8.775-20.925 0-9.225-4.051-15.525-7.875-19.574-5.401-5.625-11.701-7.876-19.125-7.876-8.775 0-14.85 3.601-18.225 6.75m54.675-27.899h14.848v92.923c0 14.85-1.35 30.375-13.498 42.525-6.751 6.75-18.451 13.724-38.476 13.724-18.9 0-30.15-5.625-36.448-11.249-7.65-6.525-13.5-18-15.751-29.024h21.446c4.551 0 8.618 2.57 10.869 6.524 1.153 2.025 2.56 3.825 4.135 5.175 5.4 4.95 12.825 5.175 16.649 5.175 7.874 0 13.05-2.699 16.652-6.075 6.298-6.075 6.974-13.725 6.974-21.6v-13.724c-9.45 14.399-22.501 16.199-29.926 16.199-13.049 0-24.299-4.049-33.749-13.274-7.2-7.2-15.525-19.8-15.525-38.7 0-15.3 5.626-29.474 15.075-38.699 8.55-8.325 20.476-13.05 33.524-13.05 18.225 0 26.776 9.9 30.601 15.75v-1e-3c0-6.958 5.642-12.599 12.6-12.599" fill="#171716"/>
<path d="m544.17 38.924c-2.249-13.274-13.05-19.574-23.174-19.574-10.125 0-20.699 6.525-22.949 19.574h46.123zm25.2 34.425c-2.926 7.199-13.949 30.374-47.925 30.374-15.749 0-27.673-4.499-37.347-13.724-10.801-10.126-15.3-22.725-15.3-38.025 0-19.349 7.875-31.274 14.85-38.249 11.474-11.251 24.974-13.725 36.674-13.725 19.799 0 31.273 7.875 38.024 15.974 10.35 12.375 11.7 27.675 11.7 38.25v2.25h-72.898c0 5.85 1.574 12.15 4.723 16.425 2.925 4.05 9 9.224 19.574 9.224 7.117 0 13.063-2.339 17.545-6.36 4.234-3.796 9.816-5.719 15.429-4.817l14.951 2.403z" fill="#171716"/>
<path d="m653.5 38.924c-2.25-13.274-13.05-19.574-23.175-19.574-10.124 0-20.698 6.525-22.948 19.574h46.123zm25.2 34.425c-2.926 7.199-13.95 30.374-47.925 30.374-15.749 0-27.673-4.499-37.348-13.724-10.8-10.126-15.299-22.725-15.299-38.025 0-19.349 7.874-31.274 14.85-38.249 11.473-11.251 24.973-13.725 36.673-13.725 19.799 0 31.274 7.875 38.025 15.974 10.35 12.375 11.7 27.675 11.7 38.25v2.25h-72.898c0 5.85 1.573 12.15 4.722 16.425 2.926 4.05 9.001 9.224 19.575 9.224 7.117 0 13.062-2.339 17.545-6.36 4.233-3.796 9.815-5.719 15.429-4.817l14.951 2.403z" fill="#171716"/>
<path d="m75.373 38.924c-2.25-13.274-13.05-19.574-23.174-19.574-10.125 0-20.699 6.525-22.949 19.574h46.123zm25.2 34.425c-2.925 7.199-13.95 30.374-47.925 30.374-15.749 0-27.673-4.499-37.348-13.724-10.8-10.126-15.3-22.725-15.3-38.025 0-19.349 7.875-31.274 14.851-38.249 11.474-11.251 24.974-13.725 36.674-13.725 19.799 0 31.273 7.875 38.024 15.974 10.35 12.375 11.7 27.675 11.7 38.25v2.25h-72.899c0 5.85 1.574 12.15 4.724 16.425 2.925 4.05 9 9.224 19.574 9.224 7.117 0 13.062-2.339 17.545-6.36 4.233-3.796 9.815-5.719 15.429-4.817l14.951 2.403z" fill="#171716"/>
</g>
</g>
</g>
</svg>
